<svg width="94" height="108" viewBox="0 0 94 108" fill="none" xmlns="http://www.w3.org/2000/svg">
<g filter="url(#filter0_d_1_797)">
<path d="M46.7386 99.8144C45.4113 99.8144 44.1725 99.4476 43.0222 98.8057L31.2536 91.5615C29.4839 90.5528 30.3688 90.186 30.8997 90.0026C33.2888 89.1774 33.7312 88.9939 36.2088 87.5268C36.4743 87.3434 36.8282 87.4351 37.0937 87.6185L46.1192 93.2121C46.4732 93.3955 46.9156 93.3955 47.1811 93.2121L82.4869 72.0296C82.8408 71.8462 83.0178 71.4794 83.0178 71.0209V28.7477C83.0178 28.2892 82.8408 27.9224 82.4869 27.739L47.1811 6.64818C46.8271 6.46479 46.3847 6.46479 46.1192 6.64818L10.8134 27.739C10.4595 27.9224 10.2825 28.3809 10.2825 28.7477V71.0209C10.2825 71.3877 10.4595 71.8462 10.8134 72.0296L20.4584 77.8067C25.679 80.5576 28.953 77.3482 28.953 74.1387V32.4156C28.953 31.8654 29.3954 31.3152 30.0148 31.3152H34.5276C35.0585 31.3152 35.5894 31.7737 35.5894 32.4156V74.1387C35.5894 81.3829 31.7845 85.6011 25.1481 85.6011C23.1129 85.6011 21.5202 85.6011 17.0074 83.3086L7.7164 77.8067C5.41577 76.4312 4 73.8636 4 71.1126V28.8394C4 26.0884 5.41577 23.5208 7.7164 22.1453L43.0222 0.96284C45.2344 -0.320947 48.2429 -0.320947 50.455 0.96284L85.7608 22.1453C88.0615 23.5208 89.4772 26.0884 89.4772 28.8394V71.1126C89.4772 73.8636 88.0615 76.4312 85.7608 77.8067L50.455 98.9892C49.3047 99.5393 47.9774 99.8144 46.7386 99.8144ZM57.6224 70.7458C42.1374 70.7458 38.9519 63.4099 38.9519 57.1744C38.9519 56.6242 39.3943 56.074 40.0137 56.074H44.615C45.1459 56.074 45.5883 56.4408 45.5883 56.991C46.2962 61.851 48.3314 64.2352 57.7109 64.2352C65.1437 64.2352 68.3291 62.4929 68.3291 58.3665C68.3291 55.9823 67.4443 54.24 55.8527 53.0479C46.2077 52.0392 40.1907 49.8384 40.1907 41.8606C40.1907 34.433 46.2077 30.0314 56.2951 30.0314C67.6213 30.0314 73.1959 34.0662 73.9037 42.8693C73.9037 43.1444 73.8153 43.4195 73.6383 43.6946C73.4613 43.878 73.1959 44.0614 72.9304 44.0614H68.3291C67.8867 44.0614 67.4443 43.6946 67.3558 43.2361C66.294 38.1927 63.5509 36.5421 56.2951 36.5421C48.1544 36.5421 47.1811 39.4765 47.1811 41.6772C47.1811 44.3365 48.3314 45.1618 59.3036 46.629C70.1873 48.0962 75.3195 50.2052 75.3195 58.0914C75.231 66.1609 68.8601 70.7458 57.6224 70.7458Z" fill="#539E43"/>
</g>
<defs>
<filter id="filter0_d_1_797" x="0" y="0" width="93.4772" height="107.814" filterUnits="userSpaceOnUse" color-interpolation-filters="sRGB">
<feFlood flood-opacity="0" result="BackgroundImageFix"/>
<feColorMatrix in="SourceAlpha" type="matrix" values="0 0 0 0 0 0 0 0 0 0 0 0 0 0 0 0 0 0 127 0" result="hardAlpha"/>
<feOffset dy="4"/>
<feGaussianBlur stdDeviation="2"/>
<feComposite in2="hardAlpha" operator="out"/>
<feColorMatrix type="matrix" values="0 0 0 0 0 0 0 0 0 0 0 0 0 0 0 0 0 0 0.25 0"/>
<feBlend mode="normal" in2="BackgroundImageFix" result="effect1_dropShadow_1_797"/>
<feBlend mode="normal" in="SourceGraphic" in2="effect1_dropShadow_1_797" result="shape"/>
</filter>
</defs>
</svg>
